<svg xmlns="http://www.w3.org/2000/svg" width="1536" height="1536" viewBox="680 -385 1536 1536" enable-background="new 680 -385 1536 1536"><path fill="#fff" d="M1939 543l30-224h-233V176c0-36 9.3-63.7 28-83s50.7-29 96-29l132-1v-207c-64-6-124-9-180-9-90.7 0-163.3 26.8-218 80.5s-82 128.8-82 225.5v166h-224v224h224v608h224V543h203z"/><path fill="#383838" d="M2216 863c0 79.3-28.2 147.2-84.5 203.5S2007.3 1151 1928 1151h-192V543h203l30-224h-233V176c0-36 9.3-63.7 28-83s50.7-29 96-29l132-1v-207c-64-6-124-9-180-9-90.7 0-163.3 26.8-218 80.5s-82 128.8-82 225.5v166h-224v224h224v608H968c-79.3 0-147.2-28.2-203.5-84.5S680 942.3 680 863V-97c0-79.3 28.2-147.2 84.5-203.5S888.7-385 968-385h960c79.3 0 147.2 28.2 203.5 84.5S2216-176.3 2216-97v960z"/></svg>